<?xml version="1.0" encoding="UTF-8"?>
<svg id="Agrupados" xmlns="http://www.w3.org/2000/svg" xmlns:xlink="http://www.w3.org/1999/xlink" viewBox="0 0 1400 502.47">
  <defs>
    <style>
      .cls-1 {
        fill: #2f365b;
      }

      .cls-2 {
        fill: url(#Degradado_sin_nombre_388);
      }
    </style>
    <linearGradient id="Degradado_sin_nombre_388" data-name="Degradado sin nombre 388" x1="550.97" y1="136.19" x2="637.79" y2="411.13" gradientUnits="userSpaceOnUse">
      <stop offset="0" stop-color="#62fa7c"/>
      <stop offset=".75" stop-color="#55b9a2"/>
      <stop offset="1" stop-color="#34998d"/>
    </linearGradient>
  </defs>
  <path class="cls-2" d="M598.31,423.35l-18.22,2.53v-233.38h18.22s0,230.66,0,230.66v.19ZM327.21,66.11v-.02h.12l-18.34,2.54v42.61h18.22v-45.13ZM598.51,40.09l-18.22,2.56v68.59h18.22V40.09ZM1012.47,192.47h-18.29l62.04,82.39-68.28,90.27h18.29l68.28-90.27-62.04-82.39ZM647.56,365.13h18.22v-172.66h-18.22v172.66ZM327.33,473.59V192.45l-18.22.03v270.49l-.03,13.27,18.25-2.64ZM91.39,142.13h-18.29l91.58,223.21h18.29l-91.58-223.21Z"/>
  <g>
    <polygon class="cls-1" points="104.85 142.13 184.94 338.42 190.85 353.84 190.19 353.84 196.1 338.09 276.19 142.13 288.99 142.13 197.74 365.33 182.97 365.33 91.39 142.13 104.85 142.13"/>
    <path class="cls-1" d="M666.05,365.13v-172.66h12.14v172.66h-12.14ZM678.19,260.42h-6.57c1.09-14.66,4.6-27.35,10.5-38.08,5.91-10.72,13.73-18.93,23.47-24.62,9.73-5.69,20.62-8.53,32.66-8.53s22.54,2.41,30.86,7.22c8.31,4.82,14.66,11.65,19.04,20.52,4.37,8.86,6.56,19.64,6.56,32.33v115.87h-12.47v-112.92c0-10.06-1.64-19.04-4.92-26.92-3.28-7.88-8.37-14.06-15.26-18.55-6.89-4.48-15.92-6.73-27.08-6.73-8.98,0-16.96,1.81-23.96,5.42-7.01,3.61-12.97,8.43-17.89,14.44-4.92,6.02-8.65,12.59-11.16,19.69-2.52,7.11-3.77,14.06-3.77,20.84Z"/>
    <path class="cls-1" d="M966.48,270.79l-6.57,6.57c0-24.29-5.36-43.16-16.08-56.62-10.72-13.46-25.72-20.19-44.97-20.19s-35.12,6.79-45.63,20.35c-10.5,13.57-15.76,33.15-15.76,58.76s5.52,43.71,16.58,57.61c11.05,13.9,26.53,20.84,46.45,20.84,15.31,0,28.23-4.05,38.73-12.14,10.5-8.09,17.61-20.13,21.34-36.11h12.8c-5.04,20.35-13.9,35.23-26.59,44.64-12.69,9.41-28.12,14.12-46.28,14.12-15.76,0-29.33-3.5-40.7-10.5-11.38-7-20.02-17.23-25.93-30.69-5.91-13.46-8.86-29.38-8.86-47.76,0-19.69,2.95-36.16,8.86-49.4,5.91-13.24,14.44-23.31,25.6-30.2,11.16-6.89,24.29-10.34,39.39-10.34s28.77,3.5,39.72,10.5c10.94,7.01,19.25,16.96,24.95,29.87,5.69,12.91,8.53,28.34,8.53,46.28v3.94h-141.14v-9.52h135.57Z"/>
    <polygon class="cls-1" points="1142.91 365.13 1081.53 282.8 1020.14 365.13 1006.03 365.13 1074.3 274.86 1012.27 192.47 1027.69 192.47 1082.84 267.13 1138.31 192.47 1152.43 192.47 1089.73 274.86 1158.33 365.13 1142.91 365.13"/>
    <path class="cls-1" d="M327.21,140.85c-6.63,0-12.01,5.38-12.01,12.01s5.38,12.01,12.01,12.01,12.01-5.38,12.01-12.01-5.38-12.01-12.01-12.01ZM598.31,140.88c-6.63,0-12.01,5.38-12.01,12.01s5.38,12.01,12.01,12.01,12.01-5.38,12.01-12.01-5.38-12.01-12.01-12.01ZM598.18,192.47v230.85l-259.09,36.41V192.47l-11.75-.03v281.08l282.87-39.74h.12v-241.31h-12.14ZM327.33,66.05h-.12v45.2h12.14v-34.74l259.09-36.41v71.15h12.14V26.24l-283.26,39.81Z"/>
    <path class="cls-1" d="M1252.39,368.23c-15.76,0-29.21-3.5-40.37-10.5-11.16-7-19.64-17.23-25.44-30.69-5.8-13.46-8.7-29.38-8.7-47.76,0-19.69,2.95-36.16,8.86-49.4,5.91-13.24,14.49-23.31,25.77-30.2,11.27-6.89,24.56-10.34,39.88-10.34s29.16,3.56,40.21,10.67c11.05,7.11,19.53,17.4,25.44,30.86,5.91,13.46,8.86,29.49,8.86,48.09s-3.01,35.56-9.03,48.91c-6.02,13.35-14.61,23.42-25.77,30.2-11.16,6.78-24.4,10.18-39.72,10.18ZM1252.39,357.72c19.91,0,35.17-6.78,45.79-20.35,10.61-13.57,15.92-33.04,15.92-58.43s-5.42-44.04-16.25-57.94c-10.83-13.89-25.99-20.84-45.46-20.84s-35.23,6.79-45.95,20.35c-10.72,13.57-16.08,33.15-16.08,58.76s5.47,43.71,16.41,57.61c10.94,13.9,26.15,20.84,45.63,20.84Z"/>
    <g>
      <path class="cls-1" d="M368.69,203.07v-10.17h80.35v10.17h-80.35ZM396.9,321.14v-168.25h12.46v168.25c0,12.46,2.4,21.48,7.22,27.06,4.81,5.58,14.1,8.36,27.88,8.36h4.26v9.18c-1.1.43-2.46.71-4.1.82-1.64.11-3.33.16-5.08.16-15.31,0-26.24-3.61-32.8-10.82-6.56-7.22-9.84-18.8-9.84-34.76Z"/>
      <path class="cls-1" d="M481.52,365.42v-172.52h12.14v172.52h-12.14ZM493.65,262.76h-6.56c1.09-15.52,4.53-28.7,10.33-39.52,5.79-10.82,13.23-19.13,22.3-24.93,9.07-5.79,18.97-8.69,29.68-8.69,3.28,0,6.34.28,9.18.82,2.84.55,5.03,1.37,6.56,2.46v11.15c-2.19-.87-4.75-1.53-7.71-1.97-2.95-.43-5.96-.66-9.02-.66-8.97,0-16.84,1.75-23.61,5.25-6.78,3.5-12.46,8.25-17.06,14.27-4.59,6.02-8.09,12.63-10.49,19.84-2.41,7.22-3.61,14.54-3.61,21.98Z"/>
    </g>
  </g>
</svg>